<svg xmlns="http://www.w3.org/2000/svg" xmlns:xlink="http://www.w3.org/1999/xlink" width="300" height="300" viewBox="0 0 300 300">
  <defs>
    <clipPath id="clip-path2">
      <rect width="300" height="300"/>
    </clipPath>
  </defs>
  <g id="path2" clip-path="url(#clip-path2)">
    <rect width="300" height="300" fill="rgba(255,255,255,0)"/>
    <g id="Path_1" data-name="Path 1" transform="translate(31 31)" fill="none">
      <path d="M119,0c33.452,0,78.511-.57,100.341,21.869,20.644,21.219-11.9,64.861-11.9,97.131,0,65.722-22.715,93.689-88.437,93.689-33.715,0-66.9,11.97-88.728-4.2C9.893,193.389,0,151.007,0,119,0,88.9,6.482,56.956,25.02,35.874,46.719,11.2,83.379,0,119,0Z" stroke="none"/>
      <path d="M 123.926139831543 1.998641967773438 C 123.0874252319336 1.998641967773438 122.2536468505859 1.998977661132813 121.4262084960938 1.99932861328125 C 120.6108016967773 1.9996337890625 119.8015823364258 1.999984741210938 118.9999847412109 1.999984741210938 C 100.837890625 1.999984741210938 83.01811218261719 4.9617919921875 67.46711730957031 10.56517028808594 C 59.24992370605469 13.52604675292969 51.66720581054688 17.21920776367188 44.92955017089844 21.54200744628906 C 37.86039733886719 26.07757568359375 31.66729736328125 31.34397888183594 26.52226257324219 37.19500732421875 C 18.04399108886719 46.83651733398438 11.63970947265625 59.41575622558594 7.4873046875 74.58326721191406 C 5.618606567382813 81.40907287597656 4.205917358398438 88.78744506835938 3.28851318359375 96.51345062255859 C 2.433517456054688 103.7137603759766 1.999984741210938 111.2793579101563 1.999984741210938 119.0000152587891 C 1.999984741210938 126.9727630615234 2.637649536132813 135.6448974609375 3.843994140625 144.0789184570313 C 5.124954223632813 153.0345153808594 6.996612548828125 161.5879821777344 9.406951904296875 169.501708984375 C 11.99151611328125 177.9872894287109 15.11085510253906 185.4354858398438 18.67832946777344 191.6392974853516 C 22.5137939453125 198.3091735839844 26.81510925292969 203.4368896484375 31.46282958984375 206.8800506591797 C 35.44914245605469 209.8333282470703 39.95930480957031 211.9085083007813 45.25102233886719 213.2241363525391 C 49.92922973632813 214.3872375488281 55.24482727050781 214.95263671875 61.50151062011719 214.95263671875 C 69.80117797851563 214.95263671875 78.63682556152344 213.9783325195313 87.99124145507813 212.9468231201172 C 98.059326171875 211.8366088867188 108.4701690673828 210.6886138916016 118.9999847412109 210.6886138916016 C 127.1273651123047 210.6886138916016 134.668212890625 210.2466735839844 141.4130554199219 209.3750457763672 C 148.1826477050781 208.5002288818359 154.4138641357422 207.1586303710938 159.9336090087891 205.3875427246094 C 165.4338073730469 203.6226959228516 170.4407653808594 201.3628234863281 174.8153991699219 198.6706695556641 C 179.1587982177734 195.9976959228516 183.05224609375 192.7914428710938 186.3875427246094 189.1409912109375 C 189.7022705078125 185.5130157470703 192.6013336181641 181.2978515625 195.0041809082031 176.6126708984375 C 197.3899536132813 171.9607543945313 199.3829650878906 166.6577911376953 200.9278259277344 160.85107421875 C 203.9618225097656 149.4471740722656 205.4367065429688 135.757568359375 205.4367065429688 119.0000152587891 C 205.4367065429688 106.1991348266602 210.3876495361328 91.76448059082031 215.1755828857422 77.80509948730469 C 219.0108642578125 66.623291015625 222.6334228515625 56.06159973144531 223.8123626708984 46.51217651367188 C 224.4304504394531 41.5057373046875 224.3112640380859 37.26528930664063 223.4480133056641 33.54850769042969 C 222.5057373046875 29.49139404296875 220.6934204101563 26.12725830078125 217.9075164794922 23.26385498046875 C 215.4950256347656 20.78413391113281 212.6796417236328 18.50157165527344 209.5396423339844 16.4796142578125 C 206.5515441894531 14.55548095703125 203.1794891357422 12.80941772460938 199.5171203613281 11.28988647460938 C 192.76513671875 8.488449096679688 185.0171203613281 6.39813232421875 175.830322265625 4.899505615234375 C 159.4076080322266 2.22052001953125 141.9074249267578 1.998641967773438 123.926139831543 1.998641967773438 M 123.9261474609375 -0.0013427734375 C 156.7526397705078 -0.0013427734375 198.5644989013672 0.513702392578125 219.3410186767578 21.86920166015625 C 239.9854583740234 43.087890625 207.4367065429688 86.73036193847656 207.4367065429688 119.0000152587891 C 207.4367065429688 184.7218933105469 184.7218933105469 212.6886138916016 118.9999847412109 212.6886138916016 C 98.87873840332031 212.6886138916016 78.94354248046875 216.9526519775391 61.50151062011719 216.9526519775391 C 49.71769714355469 216.9526519775391 39.07357788085938 215.007568359375 30.27226257324219 208.4870758056641 C 9.892578125 193.3893280029297 -1.52587890625e-05 151.0067596435547 -1.52587890625e-05 119.0000152587891 C -1.52587890625e-05 88.89950561523438 6.481979370117188 56.9561767578125 25.02035522460938 35.87429809570313 C 46.71902465820313 11.19819641113281 83.37858581542969 -1.52587890625e-05 118.9999847412109 -1.52587890625e-05 C 120.6150207519531 -1.52587890625e-05 122.2609252929688 -0.0013427734375 123.9261474609375 -0.0013427734375 Z" stroke="none" fill="#86ff55"/>
    </g>
  </g>
</svg>
