<svg xmlns="http://www.w3.org/2000/svg" width="238" height="238" viewBox="0 0 238 238">
  <g id="Path_1" data-name="Path 1" fill="none">
    <path d="M119,0A119,119,0,1,1,0,119,118.816,118.816,0,0,1,119,0Z" stroke="none"/>
    <path d="M 119 2 C 111.0603713989258 2 103.1263427734375 2.79974365234375 95.41827392578125 4.377059936523438 C 87.90715026855469 5.9140625 80.51893615722656 8.207473754882813 73.45893859863281 11.19361877441406 C 66.52662658691406 14.12571716308594 59.84025573730469 17.7550048828125 53.58555603027344 21.98056030273438 C 47.38978576660156 26.1663818359375 41.56350708007813 30.97349548339844 36.26849365234375 36.26849365234375 C 30.97349548339844 41.56350708007813 26.1663818359375 47.38978576660156 21.98056030273438 53.58555603027344 C 17.7550048828125 59.84025573730469 14.12571716308594 66.52662658691406 11.19361877441406 73.45893859863281 C 8.207473754882813 80.51893615722656 5.9140625 87.90715026855469 4.377059936523438 95.41827392578125 C 2.79974365234375 103.1263427734375 2 111.0603713989258 2 119 C 2 126.9395904541016 2.79974365234375 134.8736267089844 4.377059936523438 142.5816955566406 C 5.9140625 150.0928344726563 8.207473754882813 157.4810333251953 11.19361877441406 164.5410614013672 C 14.12571716308594 171.4733734130859 17.7550048828125 178.1597137451172 21.98056030273438 184.4143981933594 C 26.1663818359375 190.6101837158203 30.97349548339844 196.4364929199219 36.26849365234375 201.7315063476563 C 41.56350708007813 207.0264739990234 47.38978576660156 211.8336181640625 53.58555603027344 216.0194091796875 C 59.84025573730469 220.2449951171875 66.52662658691406 223.8742523193359 73.45893859863281 226.8063812255859 C 80.51893615722656 229.7925262451172 87.90715026855469 232.0859375 95.41827392578125 233.6229400634766 C 103.1263427734375 235.2002563476563 111.0603713989258 236 119 236 C 126.9395904541016 236 134.8736267089844 235.2002563476563 142.5816955566406 233.6229400634766 C 150.0928344726563 232.0859375 157.4810333251953 229.7925262451172 164.5410614013672 226.8063812255859 C 171.4733734130859 223.8742523193359 178.1597137451172 220.2449951171875 184.4143981933594 216.0194091796875 C 190.6101837158203 211.8336181640625 196.4364929199219 207.0264739990234 201.7315063476563 201.7315063476563 C 207.0264739990234 196.4364929199219 211.8336181640625 190.6101837158203 216.0194091796875 184.4143981933594 C 220.2449951171875 178.1597137451172 223.8742523193359 171.4733734130859 226.8063812255859 164.5410614013672 C 229.7925262451172 157.4810333251953 232.0859375 150.0928344726563 233.6229400634766 142.5816955566406 C 235.2002563476563 134.8736267089844 236 126.9395904541016 236 119 C 236 111.2062835693359 235.2293701171875 103.4115600585938 233.7095336914063 95.83244323730469 C 232.2297515869141 88.45321655273438 230.0225067138672 81.18890380859375 227.1490325927734 74.24128723144531 C 224.3301849365234 67.42572021484375 220.8425903320313 60.84678649902344 216.7831268310547 54.687255859375 C 212.7656555175781 48.5914306640625 208.1544342041016 42.85478210449219 203.0775604248047 37.63668823242188 C 197.7107849121094 32.12034606933594 191.7988433837891 27.11415100097656 185.5059356689453 22.75715637207031 C 179.1591186523438 18.36280822753906 172.3675537109375 14.58956909179688 165.3199157714844 11.54219055175781 C 158.1489410400391 8.44146728515625 150.6378173828125 6.060440063476563 142.9951782226563 4.46514892578125 C 135.1585998535156 2.82940673828125 127.0854339599609 2 119 2 M 119 0 C 152.4522399902344 0 182.6805572509766 13.80319213867188 204.5110626220703 36.24203491210938 C 225.1555023193359 57.46072387695313 238 86.73037719726563 238 119 C 238 184.7218780517578 184.7218780517578 238 119 238 C 53.27809143066406 238 0 184.7218780517578 0 119 C 0 53.27809143066406 53.27809143066406 0 119 0 Z" stroke="none" fill="#86ff55"/>
  </g>
</svg>
