<svg xmlns="http://www.w3.org/2000/svg" width="207.038" height="225.482" viewBox="0 0 207.038 225.482">
  <g id="path_2_" data-name="path 2 " transform="translate(-22.807 6.491)" fill="none">
    <path d="M83.142-6.491c33.452,0,99.539,20.294,121.37,42.733,20.644,21.219,25.334,50.693,25.334,82.963,0,65.722-40.017,99.786-105.738,99.786S22.92,184.927,22.92,119.2,17.42-6.491,83.142-6.491Z" stroke="none"/>
    <path d="M 83.14149475097656 -4.4910888671875 C 78.48426818847656 -4.4910888671875 74.08232116699219 -4.178115844726563 70.05799865722656 -3.560882568359375 C 66.15826416015625 -2.962738037109375 62.49482727050781 -2.060623168945313 59.16943359375 -0.8795928955078125 C 55.9560546875 0.2616424560546875 52.95738220214844 1.699432373046875 50.25669860839844 3.393783569335938 C 47.64669799804688 5.031234741210938 45.22901916503906 6.962493896484375 43.07078552246094 9.133941650390625 C 40.82826232910156 11.39019775390625 38.78593444824219 13.98652648925781 37.00057983398438 16.85075378417969 C 35.28009033203125 19.61090087890625 33.73731994628906 22.71772766113281 32.41514587402344 26.08488464355469 C 29.93778991699219 32.39393615722656 28.140380859375 39.75276184082031 26.92018127441406 48.58187866210938 C 24.61932373046875 65.23049926757813 24.73725891113281 84.55667114257813 24.86212158203125 105.0175552368164 C 24.890380859375 109.6482009887695 24.91958618164063 114.4364929199219 24.91958618164063 119.2046127319336 C 24.91958618164063 151.2424926757813 33.44761657714844 175.8402557373047 50.26678466796875 192.3146667480469 C 66.98338317871094 208.6886138916016 91.82661437988281 216.9909057617188 124.1064071655273 216.9909057617188 C 140.2857666015625 216.9909057617188 154.965087890625 214.8875579833984 167.7366180419922 210.7392578125 C 180.488525390625 206.5973510742188 191.4338531494141 200.3835296630859 200.2685546875 192.2703857421875 C 204.707763671875 188.1937255859375 208.6742553710938 183.5752868652344 212.0578765869141 178.5432891845703 C 215.4780578613281 173.4569702148438 218.3851470947266 167.8255004882813 220.6984405517578 161.8052673339844 C 223.0450592041016 155.6983184814453 224.8372039794922 149.0442352294922 226.0250854492188 142.0278167724609 C 227.2325897216797 134.8955230712891 227.8448486328125 127.2167053222656 227.8448486328125 119.2046127319336 C 227.8448486328125 100.8400268554688 226.3013458251953 86.50617218017578 222.9873199462891 74.09516906738281 C 221.0858459472656 66.97419738769531 218.5382080078125 60.40220642089844 215.4151458740234 54.56173706054688 C 212.0715637207031 48.30882263183594 207.9205932617188 42.61444091796875 203.0775604248047 37.63667297363281 C 200.5188446044922 35.00669860839844 197.2201995849609 32.30802917480469 193.2732543945313 29.61564636230469 C 189.4814758300781 27.02914428710938 185.0572052001953 24.42494201660156 180.1233825683594 21.87538146972656 C 170.8250579833984 17.07049560546875 159.5603485107422 12.39579772949219 147.5470581054688 8.356613159179688 C 136.0255584716797 4.482818603515625 123.9947052001953 1.244415283203125 112.7551727294922 -1.008499145507813 C 101.3888549804688 -3.286819458007813 91.14862060546875 -4.4910888671875 83.14149475097656 -4.4910888671875 M 83.14149475097656 -6.4910888671875 C 116.5937652587891 -6.4910888671875 182.6805572509766 13.80320739746094 204.5110473632813 36.24201965332031 C 225.1555023193359 57.46070861816406 229.8448486328125 86.93496704101563 229.8448486328125 119.2046127319336 C 229.8448486328125 184.9264984130859 189.8282928466797 218.9909057617188 124.1064071655273 218.9909057617188 C 58.384521484375 218.9909057617188 22.91958618164063 184.9264984130859 22.91958618164063 119.2046127319336 C 22.91958618164063 53.48272705078125 17.41961669921875 -6.4910888671875 83.14149475097656 -6.4910888671875 Z" stroke="none" fill="#86ff55"/>
  </g>
</svg>
